<?xml version="1.0" encoding="UTF-8"?>
<svg xmlns="http://www.w3.org/2000/svg" xmlns:xlink="http://www.w3.org/1999/xlink" width="300px" height="300px" viewBox="0 0 300 300" version="1.1">
<g id="surface1">
<path style=" stroke:none;fill-rule:nonzero;fill:rgb(70.980394%,1.960784%,11.372549%);fill-opacity:1;" d="M 110.714844 183.730469 L 138.625 150.164062 C 143.417969 141.875 155.199219 141.875 159.992188 150.164062 L 187.90625 183.730469 C 192.765625 192.136719 186.808594 202.734375 177.21875 202.734375 L 121.398438 202.734375 C 111.8125 202.734375 105.851562 192.136719 110.714844 183.730469 Z M 97.753906 129.886719 C 91.140625 132.628906 89.417969 143.5 93.90625 154.164062 C 98.398438 164.832031 107.398438 171.253906 114.011719 168.511719 C 120.625 165.769531 122.351562 154.898438 117.859375 144.230469 C 113.371094 133.566406 104.371094 127.144531 97.753906 129.886719 Z M 143.152344 114.160156 C 146.417969 125.277344 143.480469 135.875 136.601562 137.832031 C 129.722656 139.792969 121.503906 132.371094 118.238281 121.253906 C 114.976562 110.136719 117.910156 99.539062 124.789062 97.578125 C 131.671875 95.621094 139.894531 103.042969 143.152344 114.160156 Z M 182.140625 144.230469 C 177.652344 154.898438 179.375 165.765625 185.988281 168.511719 C 192.601562 171.253906 201.605469 164.832031 206.09375 154.164062 C 210.582031 143.5 208.859375 132.628906 202.246094 129.886719 C 195.628906 127.144531 186.628906 133.566406 182.140625 144.230469 Z M 175.207031 97.578125 C 182.085938 99.539062 185.019531 110.136719 181.757812 121.253906 C 178.496094 132.371094 170.277344 139.792969 163.394531 137.832031 C 156.515625 135.875 153.582031 125.277344 156.84375 114.160156 C 160.105469 103.042969 168.328125 95.621094 175.207031 97.578125 Z M 175.207031 97.578125 "/>
</g>
</svg>
